<svg width="61" height="61" viewBox="0 0 61 61" fill="none" xmlns="http://www.w3.org/2000/svg">
<circle cx="30.5" cy="30.5" r="30" fill="#FF7A59" stroke="#E1E1E1"/>
<path d="M36.2521 24.6618V21.2466C36.7034 21.0357 37.0855 20.7009 37.354 20.2813C37.6224 19.8616 37.7662 19.3743 37.7685 18.8762V18.7978C37.7685 17.3453 36.591 16.1679 35.1386 16.1679H35.0602C33.6077 16.1679 32.4302 17.3453 32.4302 18.7978V18.8762C32.4325 19.3743 32.5763 19.8616 32.8447 20.2813C33.1132 20.7009 33.4953 21.0357 33.9466 21.2466V24.6618C32.6495 24.8604 31.4279 25.3983 30.4055 26.2209L21.0393 18.9255C21.1061 18.6844 21.1409 18.4365 21.1448 18.1876C21.146 17.6015 20.9733 17.0282 20.6486 16.5402C20.3238 16.0523 19.8617 15.6716 19.3206 15.4463C18.7795 15.2211 18.1837 15.1613 17.6087 15.2747C17.0336 15.3881 16.5051 15.6694 16.09 16.0832C15.6749 16.497 15.3918 17.0246 15.2766 17.5993C15.1613 18.174 15.2191 18.7699 15.4427 19.3117C15.6662 19.8536 16.0453 20.317 16.5322 20.6433C17.0191 20.9696 17.5919 21.1441 18.178 21.1449C18.6907 21.1425 19.1939 21.0056 19.6372 20.7479L28.8602 27.9249C27.1646 30.4864 27.2099 33.8248 28.9745 36.3395L26.1693 39.1455C25.9424 39.0731 25.7063 39.0345 25.4682 39.0313C24.1248 39.0324 23.0364 40.1219 23.0368 41.4654C23.0371 42.8087 24.1262 43.8976 25.4695 43.898C26.8129 43.8983 27.9024 42.81 27.9036 41.4665C27.9004 41.2285 27.8619 40.9923 27.7892 40.7656L30.5643 37.9895C33.0439 39.8983 36.4494 40.0628 39.1015 38.4017C41.7534 36.7406 43.0918 33.6046 42.4563 30.5406C41.8209 27.4765 39.3459 25.1315 36.2521 24.6618ZM35.1018 35.894C34.5891 35.9078 34.0789 35.8187 33.6012 35.6321C33.1235 35.4454 32.6881 35.1649 32.3206 34.8072C31.9531 34.4494 31.661 34.0217 31.4615 33.5492C31.2621 33.0767 31.1593 32.569 31.1593 32.0561C31.1593 31.5433 31.2621 31.0356 31.4615 30.5631C31.661 30.0906 31.9531 29.6629 32.3206 29.3051C32.6881 28.9474 33.1235 28.6669 33.6012 28.4802C34.0789 28.2936 34.5891 28.2045 35.1018 28.2183C37.1679 28.2906 38.8056 29.9859 38.8068 32.0534C38.8077 34.1206 37.1717 35.8176 35.1056 35.892" fill="white"/>
</svg>
